<svg width="120" height="120" viewBox="0 0 120 120" fill="none" xmlns="http://www.w3.org/2000/svg">
<g id="logo">
<rect width="120" height="120" rx="60" fill="white"/>
<g id="Group">
<path id="Vector" d="M64.1263 35.5333L85.8062 43.6633C86.2833 43.8423 86.705 44.1436 87.0289 44.537C87.3528 44.9304 87.5675 45.4021 87.6516 45.9047L96.094 96.5626L45.436 88.1202C44.9334 88.0361 44.4618 87.8214 44.0684 87.4975C43.675 87.1736 43.3737 86.7519 43.1947 86.2748L35.0647 64.5949L64.1263 35.5333ZM65.5793 73.3134C67.0163 73.3134 68.421 72.8873 69.6158 72.0889C70.8106 71.2906 71.7418 70.1559 72.2917 68.8283C72.8416 67.5007 72.9855 66.0399 72.7051 64.6306C72.4248 63.2212 71.7328 61.9267 70.7168 60.9106C69.7007 59.8945 68.4061 59.2025 66.9968 58.9222C65.5874 58.6418 64.1266 58.7857 62.799 59.3356C61.4714 59.8855 60.3367 60.8168 59.5384 62.0115C58.7401 63.2063 58.3139 64.611 58.3139 66.048C58.3139 67.9749 59.0794 69.8229 60.4419 71.1854C61.8045 72.5479 63.6524 73.3134 65.5793 73.3134Z" fill="#FDB022"/>
<path id="Vector_2" d="M20.5339 51.7643C20.5314 51.0007 20.6808 50.2443 20.9733 49.539C21.2658 48.8337 21.6955 48.1935 22.2376 47.6557L47.187 22.7027C47.7267 22.1629 48.3675 21.7346 49.0728 21.4424C49.7781 21.1503 50.534 20.9999 51.2974 20.9999C52.0608 20.9999 52.8167 21.1503 53.522 21.4424C54.2272 21.7346 54.868 22.1629 55.4078 22.7027L65.7355 33.0305L86.8052 40.9389C87.7627 41.296 88.6097 41.8984 89.2612 42.6857C89.9128 43.4731 90.3461 44.4178 90.5178 45.4253L98.9602 96.0832C99.0298 96.4996 99.0079 96.9262 98.896 97.3333C98.784 97.7404 98.5847 98.1182 98.3119 98.4405C98.0391 98.7627 97.6994 99.0216 97.3163 99.1992C96.9333 99.3769 96.5162 99.4689 96.094 99.4689C95.9333 99.4682 95.773 99.4548 95.6145 99.4289L44.9601 90.9865C43.9539 90.8186 43.0095 90.3888 42.222 89.7403C41.4345 89.0918 40.8316 88.2474 40.4737 87.2921L32.5654 66.2224L22.2376 55.8765C21.6953 55.3382 21.2653 54.6974 20.9729 53.9915C20.6804 53.2855 20.5312 52.5285 20.5339 51.7643ZM45.9155 85.2541L87.6225 92.2035L70.4144 74.9954C68.2652 76.157 65.7696 76.5062 63.384 75.9791C60.9985 75.4521 58.8823 74.084 57.4224 72.1251C55.9626 70.1661 55.2566 67.7472 55.4335 65.3105C55.6104 62.8738 56.6584 60.5822 58.386 58.8547C60.1135 57.1272 62.4051 56.0792 64.8417 55.9022C67.2784 55.7253 69.6974 56.4313 71.6563 57.8912C73.6153 59.3511 74.9833 61.4672 75.5104 63.8528C76.0374 66.2383 75.6882 68.7339 74.5266 70.8832L91.7347 88.0985L84.7854 46.3807L64.8528 38.9082L38.4431 65.3215L45.9155 85.2541ZM69.9386 66.0481C69.9386 65.1859 69.6829 64.3431 69.2039 63.6262C68.7249 62.9093 68.0441 62.3506 67.2475 62.0207C66.451 61.6907 65.5745 61.6044 64.7289 61.7726C63.8833 61.9408 63.1065 62.356 62.4969 62.9656C61.8872 63.5753 61.472 64.352 61.3038 65.1976C61.1356 66.0432 61.222 66.9197 61.5519 67.7163C61.8818 68.5128 62.4406 69.1936 63.1575 69.6726C63.8743 70.1516 64.7171 70.4073 65.5793 70.4073C66.7355 70.4073 67.8442 69.948 68.6618 69.1305C69.4793 68.313 69.9386 67.2042 69.9386 66.0481ZM35.0647 60.4828L60.0177 35.5334L51.2992 26.8149L26.3462 51.7643L35.0647 60.4828Z" fill="#3E1C96"/>
</g>
</g>
</svg>
